HIERARCHY
ROOT Hips
{
	OFFSET 44.237999 -20.257414 84.280998
	CHANNELS 6 Xposition Yposition Zposition Xrotation Yrotation Zrotation
	JOINT spine
	{
		OFFSET 0.000000 -0.342409 5.954384
		CHANNELS 3 Xrotation Yrotation Zrotation
		JOINT spine1
		{
			OFFSET 0.000000 0.000000 8.856018
			CHANNELS 3 Xrotation Yrotation Zrotation
			JOINT spine2
			{
				OFFSET 0.000000 -0.000002 8.485672
				CHANNELS 3 Xrotation Yrotation Zrotation
				JOINT Neck
				{
					OFFSET 0.000000 -1.038704 21.786301
					CHANNELS 3 Xrotation Yrotation Zrotation
					JOINT Head
					{
						OFFSET 0.000000 -0.000002 6.582199
						CHANNELS 3 Xrotation Yrotation Zrotation
						End Site
						{
							OFFSET 0.000000 5.254358 15.932602
						}
					}
				}
				JOINT RightShoulder
				{
					OFFSET -3.573071 0.497522 9.163864
					CHANNELS 3 Xrotation Yrotation Zrotation
					JOINT RightArm
					{
						OFFSET 0.000000 -0.000002 12.019196
						CHANNELS 3 Xrotation Yrotation Zrotation
						JOINT RightArmRoll
						{
							OFFSET 0.000000 -0.000002 6.067551
							CHANNELS 3 Xrotation Yrotation Zrotation
							JOINT RightForeArm
							{
								OFFSET 0.000000 -0.000002 17.672592
								CHANNELS 3 Xrotation Yrotation Zrotation
								JOINT RightForeArmRoll
								{
									OFFSET 0.000000 -0.000002 6.808716
									CHANNELS 3 Xrotation Yrotation Zrotation
									JOINT RightHand
									{
										OFFSET 0.000000 -0.000002 13.663605
										CHANNELS 3 Xrotation Yrotation Zrotation
										End Site
										{
											OFFSET 0.000000 0.000000 0.100006
										}
									}
								}
							}
						}
					}
				}
				JOINT LeftShoulder
				{
					OFFSET 3.573071 0.497522 9.163864
					CHANNELS 3 Xrotation Yrotation Zrotation
					JOINT LeftArm
					{
						OFFSET 0.000000 -0.000002 12.019196
						CHANNELS 3 Xrotation Yrotation Zrotation
						JOINT LeftArmRoll
						{
							OFFSET 0.000000 -0.000002 6.067551
							CHANNELS 3 Xrotation Yrotation Zrotation
							JOINT LeftForeArm
							{
								OFFSET 0.000000 -0.000002 17.672592
								CHANNELS 3 Xrotation Yrotation Zrotation
								JOINT LeftForeArmRoll
								{
									OFFSET 0.000000 -0.000002 6.808716
									CHANNELS 3 Xrotation Yrotation Zrotation
									JOINT LeftHand
									{
										OFFSET 0.000000 -0.000002 13.663605
										CHANNELS 3 Xrotation Yrotation Zrotation
										End Site
										{
											OFFSET 0.000000 0.000000 0.100006
										}
									}
								}
							}
						}
					}
				}
			}
		}
	}
	JOINT RightUpLeg
	{
		OFFSET -5.277740 0.811857 -0.967796
		CHANNELS 3 Xrotation Yrotation Zrotation
		JOINT RightUpLegRoll
		{
			OFFSET 0.000000 -0.000002 16.021400
			CHANNELS 3 Xrotation Yrotation Zrotation
			JOINT RightLeg
			{
				OFFSET 0.000000 0.000002 -19.840096
				CHANNELS 3 Xrotation Yrotation Zrotation
				JOINT RightLegRoll
				{
					OFFSET 0.000000 -0.000002 19.904999
					CHANNELS 3 Xrotation Yrotation Zrotation
					JOINT RightFoot
					{
						OFFSET 0.000000 -0.000004 16.567497
						CHANNELS 3 Xrotation Yrotation Zrotation
						JOINT RightToeBase
						{
							OFFSET 0.000000 -0.000002 13.849602
							CHANNELS 3 Xrotation Yrotation Zrotation
							End Site
							{
								OFFSET 0.005871 0.773115 6.707275
							}
						}
					}
				}
			}
		}
	}
	JOINT LeftUpLeg
	{
		OFFSET 5.277740 0.811857 -0.967796
		CHANNELS 3 Xrotation Yrotation Zrotation
		JOINT LeftUpLegRoll
		{
			OFFSET 0.000000 -0.000002 16.021500
			CHANNELS 3 Xrotation Yrotation Zrotation
			JOINT LeftLeg
			{
				OFFSET 0.000000 -0.000004 19.839996
				CHANNELS 3 Xrotation Yrotation Zrotation
				JOINT LeftLegRoll
				{
					OFFSET 0.000000 -0.000004 20.089005
					CHANNELS 3 Xrotation Yrotation Zrotation
					JOINT LeftFoot
					{
						OFFSET 0.000000 -0.000002 16.383499
						CHANNELS 3 Xrotation Yrotation Zrotation
						JOINT LeftToeBase
						{
							OFFSET 0.000000 -0.000002 13.849594
							CHANNELS 3 Xrotation Yrotation Zrotation
							End Site
							{
								OFFSET -0.026310 0.773115 6.707275
							}
						}
					}
				}
			}
		}
	}
}
MOTION
Frames: 10
Frame Time: 0.041667
44.288799 -12.989111 83.473991 -5.728301 -3.796442 67.388258 -0.333165 0.124702 -0.007869 3.336511 0.249354 -0.012247 4.981578 0.249252 -0.018296 -0.091353 7.654322 0.867844 4.262364 -15.599645 0.984656 10.735553 -62.587837 11.925824 99.411996 -52.778753 97.541699 -0.000002 -0.000002 0.000001 -0.034424 3.653831 -1.990816 0.000037 -0.000000 -3.011600 -5.000151 -7.999959 0.000034 -15.813905 65.426416 18.775632 101.813491 33.611562 -82.714520 0.000000 -0.000000 0.000003 84.802673 -2.017298 4.622833 0.000011 0.000002 2.999987 -4.999850 7.999878 -0.000004 -4.988054 179.744966 -1.019719 -179.999991 0.000004 -1.176004 160.206253 3.522424 -0.363296 -0.000008 0.000004 0.100926 67.943628 6.972221 2.002638 25.456941 -7.347047 -0.000008 -6.557274 179.381067 -0.495820 -0.000005 -0.000004 -1.105519 -19.304141 2.885576 1.116757 0.000015 -0.000000 -0.288859 70.558108 -6.835524 -2.178940 25.456846 7.355617 -0.000006 
44.289196 -12.987009 83.472099 -5.720792 -3.815381 67.441964 -0.330830 0.125567 -0.007866 3.341183 0.251082 -0.012249 4.986247 0.250982 -0.018292 -0.066185 7.654375 0.866334 4.198813 -15.578717 0.973411 10.666391 -62.613888 11.842422 99.586153 -52.757740 97.637903 0.000001 0.000001 -0.000000 -0.034460 3.656361 -1.990813 0.000037 -0.000000 -3.011600 -5.000155 -7.999958 0.000033 -15.802211 65.433929 18.762371 101.830587 33.604999 -82.721391 0.000000 0.000002 0.000003 84.758003 -2.018811 4.622782 0.000010 0.000005 2.999992 -4.999849 7.999879 -0.000002 -4.981880 179.753941 -1.030491 -179.999991 0.000004 -1.175007 160.238205 3.541019 -0.359844 -0.000007 0.000004 0.098957 67.933444 6.972959 2.001227 25.456941 -7.347042 -0.000005 -6.527747 179.377064 -0.500298 -0.000005 -0.000004 -1.105511 -19.293459 2.887521 1.116576 0.000013 0.000000 -0.288881 70.564481 -6.835504 -2.178645 25.456848 7.355622 -0.000006 
44.300900 -13.005116 83.485489 -5.713333 -3.834555 67.495458 -0.328366 0.126418 -0.007863 3.346112 0.252782 -0.012247 4.991179 0.252679 -0.018295 -0.040950 7.656359 0.865206 4.134832 -15.559666 0.962327 10.592489 -62.640150 11.753591 99.760199 -52.733538 97.732999 0.000000 0.000002 -0.000000 -0.034510 3.659083 -1.990806 0.000037 -0.000000 -3.011599 -5.000150 -7.999961 0.000034 -15.789649 65.442255 18.748140 101.845470 33.598483 -82.727497 -0.000002 0.000002 0.000000 84.716011 -2.020222 4.622865 0.000010 0.000003 2.999991 -4.999853 7.999879 -0.000004 -4.976459 179.763899 -1.041801 -179.999991 0.000005 -1.175005 160.269023 3.561486 -0.355662 -0.000008 0.000004 0.096994 67.923267 6.973729 1.999822 25.456938 -7.347043 -0.000006 -6.497627 179.374045 -0.504965 -0.000004 -0.000004 -1.105481 -19.282380 2.889622 1.116410 0.000014 -0.000000 -0.288913 70.570860 -6.835517 -2.178355 25.456848 7.355620 -0.000006 
44.272099 -13.012714 83.488594 -5.705916 -3.853908 67.548624 -0.325813 0.127257 -0.007866 3.351213 0.254460 -0.012247 4.996280 0.254359 -0.018291 -0.015668 7.659711 0.864337 4.070526 -15.541899 0.951371 10.515189 -62.666535 11.660844 99.934157 -52.707173 97.827317 -0.000001 -0.000002 -0.000001 -0.034576 3.661927 -1.990811 0.000039 0.000002 -3.011600 -5.000152 -7.999961 0.000034 -15.776427 65.451046 18.733143 101.858270 33.592298 -82.731903 0.000002 -0.000003 -0.000000 84.675850 -2.021587 4.622996 0.000009 0.000000 2.999991 -4.999855 7.999880 -0.000001 -4.971553 179.772860 -1.053339 -179.999991 0.000005 -1.175008 160.299035 3.581931 -0.352460 -0.000008 0.000004 0.095039 67.913083 6.974500 1.998314 25.456938 -7.347044 -0.000006 -6.467081 179.370029 -0.509576 -0.000005 -0.000004 -1.105459 -19.270904 2.891827 1.116251 0.000014 -0.000000 -0.288953 70.577342 -6.835495 -2.178153 25.456849 7.355619 -0.000007 
44.286400 -13.039816 83.484398 -5.698501 -3.873355 67.601790 -0.323216 0.128091 -0.007868 3.356423 0.256127 -0.012241 5.001480 0.256025 -0.018290 0.009641 7.663841 0.863620 4.006057 -15.524815 0.940501 10.435875 -62.692913 11.565820 100.107958 -52.679265 97.921116 -0.000002 -0.000002 -0.000000 -0.034644 3.664862 -1.990816 0.000040 -0.000003 -3.011599 -5.000151 -7.999963 0.000035 -15.762854 65.460191 18.717765 101.870933 33.585830 -82.737428 0.000001 -0.000002 0.000001 84.636876 -2.022880 4.623041 0.000008 0.000004 2.999989 -4.999848 7.999878 -0.000003 -4.966943 179.781835 -1.065075 -179.999991 0.000005 -1.173994 160.328637 3.602372 -0.348265 -0.000007 0.000004 0.093094 67.902824 6.975336 1.996829 25.456936 -7.347044 -0.000004 -6.436308 179.366013 -0.514221 -0.000005 -0.000004 -1.105418 -19.259327 2.894089 1.116096 0.000014 -0.000001 -0.289001 70.583831 -6.835507 -2.177757 25.456848 7.355619 -0.000006 
44.334904 -13.094316 83.504593 -5.691074 -3.892817 67.654759 -0.320601 0.128924 -0.007866 3.361654 0.257791 -0.012244 5.006711 0.257689 -0.018290 0.034957 7.668159 0.862934 3.941545 -15.508009 0.929684 10.355943 -62.719284 11.470083 100.281541 -52.650841 98.014594 -0.000003 -0.000001 -0.000001 -0.034717 3.667824 -1.990810 0.000037 -0.000001 -3.011599 -5.000150 -7.999958 0.000033 -15.749206 65.469453 18.702298 101.882961 33.579566 -82.742080 0.000002 -0.000001 0.000003 84.598142 -2.024158 4.623101 0.000009 0.000002 2.999990 -4.999849 7.999885 -0.000001 -4.962412 179.790796 -1.076843 -179.999991 0.000004 -1.173998 160.358048 3.622828 -0.345058 -0.000007 0.000004 0.091145 67.892654 6.976140 1.995230 25.456940 -7.347044 -0.000006 -6.405459 179.363008 -0.518989 -0.000004 -0.000004 -1.105392 -19.247750 2.896371 1.115950 0.000014 -0.000000 -0.289049 70.590203 -6.835515 -2.177468 25.456849 7.355619 -0.000007 
44.332199 -13.105011 83.501297 -5.683589 -3.912240 67.707945 -0.318012 0.129759 -0.007866 3.366824 0.259461 -0.012243 5.011891 0.259359 -0.018289 0.060261 7.672096 0.862172 3.877139 -15.490775 0.918883 10.276797 -62.745546 11.375263 100.454795 -52.622646 98.107922 -0.000001 -0.000002 0.000000 -0.034790 3.670724 -1.990812 0.000037 0.000001 -3.011601 -5.000152 -7.999964 0.000034 -15.735690 65.478476 18.686969 101.895651 33.573180 -82.747318 -0.000001 0.000002 0.000002 84.558910 -2.025456 4.623242 0.000013 0.000003 2.999988 -4.999853 7.999880 -0.000003 -4.957728 179.799758 -1.088530 -179.999991 0.000005 -1.173996 160.387745 3.643284 -0.341896 -0.000008 0.000004 0.089197 67.882381 6.976975 1.993744 25.456941 -7.347042 -0.000005 -6.374742 179.358992 -0.523636 -0.000004 -0.000004 -1.105361 -19.236173 2.898615 1.115791 0.000014 -0.000000 -0.289095 70.596699 -6.835525 -2.177170 25.456848 7.355620 -0.000006 
44.332199 -13.099216 83.490601 -5.676031 -3.931531 67.761255 -0.315487 0.130601 -0.007864 3.371886 0.261145 -0.012242 5.016942 0.261044 -0.018290 0.085531 7.675062 0.861214 3.812985 -15.472620 0.908080 10.199813 -62.771597 11.282932 100.627968 -52.595650 98.201700 -0.000000 -0.000001 0.000001 -0.034847 3.673550 -1.990806 0.000039 0.000001 -3.011601 -5.000152 -7.999964 0.000034 -15.722622 65.487150 18.672165 101.909134 33.566876 -82.752407 0.000002 -0.000004 0.000001 84.518236 -2.026843 4.623260 0.000008 0.000003 2.999989 -4.999851 7.999888 -0.000003 -4.952675 179.809730 -1.100060 -179.999991 0.000005 -1.173001 160.417948 3.663758 -0.337805 -0.000007 0.000003 0.087243 67.872225 6.977774 1.992147 25.456940 -7.347043 -0.000007 -6.344312 179.355973 -0.528359 -0.000005 -0.000004 -1.105340 -19.224799 2.900790 1.115623 0.000014 -0.000001 -0.289129 70.603167 -6.835497 -2.176868 25.456846 7.355619 -0.000008 
44.344200 -13.131516 83.493889 -5.668372 -3.950628 67.814790 -0.313060 0.131456 -0.007867 3.376736 0.262854 -0.012243 5.021793 0.262750 -0.018289 0.110748 7.676478 0.859957 3.749207 -15.452946 0.897231 10.126397 -62.797340 11.194715 100.800751 -52.570740 98.295807 -0.000002 0.000000 -0.000000 -0.034891 3.676211 -1.990812 0.000037 -0.000000 -3.011601 -5.000151 -7.999959 0.000033 -15.710205 65.495128 18.658094 101.924714 33.560305 -82.758814 0.000002 -0.000003 0.000001 84.475486 -2.028271 4.623228 0.000008 0.000003 2.999991 -4.999850 7.999880 -0.000005 -4.947020 179.818663 -1.111132 -179.999991 0.000005 -1.172997 160.449080 3.683318 -0.334113 -0.000006 0.000004 0.085274 67.862048 6.978532 1.990736 25.456938 -7.347042 -0.000004 -6.314366 179.351957 -0.532911 -0.000004 -0.000004 -1.105320 -19.213819 2.902844 1.115450 0.000014 -0.000000 -0.289163 70.609553 -6.835497 -2.176574 25.456853 7.355619 -0.000008 
44.331200 -13.142710 83.492287 -5.660573 -3.969452 67.868673 -0.310776 0.132328 -0.007864 3.381306 0.264595 -0.012242 5.026373 0.264491 -0.018291 0.135889 7.675761 0.858295 3.685950 -15.431241 0.886314 10.057956 -62.822673 11.112222 100.973494 -52.548692 98.391013 -0.000002 -0.000001 0.000000 -0.034921 3.678662 -1.990808 0.000038 -0.000002 -3.011601 -5.000154 -7.999959 0.000033 -15.698859 65.502395 18.645240 101.942540 33.553769 -82.765692 -0.000000 -0.000002 0.000001 84.429635 -2.029865 4.623238 0.000007 0.000003 2.999990 -4.999848 7.999882 -0.000003 -4.940562 179.827638 -1.121701 -179.999991 0.000005 -1.172997 160.481510 3.702915 -0.330526 -0.000007 0.000004 0.083297 67.851851 6.979257 1.989425 25.456940 -7.347043 -0.000008 -6.285091 179.347954 -0.537384 -0.000004 -0.000004 -1.105300 -19.203331 2.904738 1.115258 0.000014 -0.000001 -0.289181 70.615830 -6.835502 -2.176388 25.456849 7.355619 -0.000006 
